<svg xmlns="http://www.w3.org/2000/svg" xmlns:xlink="http://www.w3.org/1999/xlink" width="1080" zoomAndPan="magnify" viewBox="0 0 810 809.999993" height="1080" preserveAspectRatio="xMidYMid meet" version="1.0"><defs><filter x="0%" y="0%" width="100%" height="100%" id="db1666d362"><feColorMatrix values="0 0 0 0 1 0 0 0 0 1 0 0 0 0 1 0 0 0 1 0" color-interpolation-filters="sRGB"/></filter><g/><clipPath id="bff72bc2d8"><path d="M 614.007812 79.484375 L 730.507812 79.484375 L 730.507812 195.984375 L 614.007812 195.984375 Z M 614.007812 79.484375 " clip-rule="nonzero"/></clipPath><clipPath id="71e90dd712"><path d="M 730.507812 137.777344 C 730.507812 169.828125 704.351562 195.984375 672.214844 195.984375 C 640.167969 195.984375 614.007812 169.828125 614.007812 137.777344 C 614.007812 105.644531 640.167969 79.574219 672.214844 79.574219 C 704.351562 79.484375 730.507812 105.644531 730.507812 137.777344 Z M 646.058594 137.777344 C 646.058594 152.15625 657.835938 163.9375 672.214844 163.9375 C 686.59375 163.9375 698.375 152.15625 698.375 137.777344 C 698.375 123.398438 686.59375 111.621094 672.214844 111.621094 C 657.835938 111.621094 646.058594 123.3125 646.058594 137.777344 Z M 646.058594 137.777344 " clip-rule="nonzero"/></clipPath><clipPath id="8585093968"><path d="M 651.015625 0 L 730.507812 0 L 730.507812 79.488281 L 651.015625 79.488281 Z M 651.015625 0 " clip-rule="nonzero"/></clipPath><clipPath id="fd5cf7b579"><path d="M 690.757812 -0.00390625 C 668.808594 -0.00390625 651.015625 17.789062 651.015625 39.738281 C 651.015625 61.6875 668.808594 79.480469 690.757812 79.480469 L 730.5 79.480469 L 730.5 39.738281 C 730.507812 17.789062 712.707031 -0.00390625 690.757812 -0.00390625 Z M 690.757812 -0.00390625 " clip-rule="nonzero"/></clipPath><clipPath id="d6b55d7c98"><path d="M 730.507812 79.710938 L 809.777344 79.710938 L 809.777344 158.976562 L 730.507812 158.976562 Z M 730.507812 79.710938 " clip-rule="nonzero"/></clipPath><clipPath id="163884f648"><path d="M 730.507812 0 L 809.871094 0 L 809.871094 79.484375 L 730.507812 79.484375 Z M 730.507812 0 " clip-rule="nonzero"/></clipPath><clipPath id="9e77e0bf7b"><path d="M 809.871094 -0.0078125 L 809.871094 79.484375 L 730.507812 79.484375 Z M 809.871094 -0.0078125 " clip-rule="nonzero"/></clipPath><clipPath id="c4f4bed8cd"><path d="M 672.257812 20.683594 L 710.699219 20.683594 L 710.699219 59.125 L 672.257812 59.125 Z M 672.257812 20.683594 " clip-rule="nonzero"/></clipPath><clipPath id="75d7044f53"><path d="M 672.257812 39.90625 C 672.257812 50.519531 680.863281 59.125 691.480469 59.125 C 702.09375 59.125 710.699219 50.519531 710.699219 39.90625 C 710.699219 29.289062 702.09375 20.683594 691.480469 20.683594 C 680.863281 20.683594 672.257812 29.289062 672.257812 39.90625 Z M 672.257812 39.90625 " clip-rule="nonzero"/></clipPath><clipPath id="c15e2f00de"><path d="M 704.972656 97.523438 L 766.078125 97.523438 L 766.078125 158.632812 L 704.972656 158.632812 Z M 704.972656 97.523438 " clip-rule="nonzero"/></clipPath><clipPath id="7eb66374c6"><path d="M 704.972656 128.078125 C 704.972656 144.953125 718.648438 158.632812 735.523438 158.632812 C 752.398438 158.632812 766.078125 144.953125 766.078125 128.078125 C 766.078125 111.203125 752.398438 97.523438 735.523438 97.523438 C 718.648438 97.523438 704.972656 111.203125 704.972656 128.078125 Z M 704.972656 128.078125 " clip-rule="nonzero"/></clipPath><clipPath id="7cfbfc9b84"><path d="M 93.15625 97.996094 L 546.460938 97.996094 L 546.460938 254.390625 L 93.15625 254.390625 Z M 93.15625 97.996094 " clip-rule="nonzero"/></clipPath><clipPath id="ef479dd2c2"><path d="M 516.929688 254.390625 L 122.628906 254.390625 C 106.386719 254.390625 93.15625 241.160156 93.15625 224.917969 L 93.15625 127.46875 C 93.15625 111.230469 106.386719 97.996094 122.628906 97.996094 L 516.929688 97.996094 C 533.171875 97.996094 546.40625 111.230469 546.40625 127.46875 L 546.40625 224.917969 C 546.40625 241.160156 533.171875 254.390625 516.929688 254.390625 Z M 516.929688 254.390625 " clip-rule="nonzero"/></clipPath><mask id="ea37a4e2d2"><g filter="url(#db1666d362)"><rect x="-81" width="972" fill="#000000" y="-80.999999" height="971.999992" fill-opacity="0.2"/></g></mask><clipPath id="d444507fc2"><path d="M 0.320312 0.28125 L 347.359375 0.28125 L 347.359375 1.960938 L 0.320312 1.960938 Z M 0.320312 0.28125 " clip-rule="nonzero"/></clipPath><clipPath id="b3a0c1f52b"><rect x="0" width="348" y="0" height="2"/></clipPath><clipPath id="81ec128044"><path d="M 136.519531 107.375 L 155.828125 107.375 L 155.828125 126.679688 L 136.519531 126.679688 Z M 136.519531 107.375 " clip-rule="nonzero"/></clipPath><clipPath id="e692f0f350"><path d="M 146.171875 107.375 C 140.84375 107.375 136.519531 111.695312 136.519531 117.027344 C 136.519531 122.359375 140.84375 126.679688 146.171875 126.679688 C 151.503906 126.679688 155.828125 122.359375 155.828125 117.027344 C 155.828125 111.695312 151.503906 107.375 146.171875 107.375 Z M 146.171875 107.375 " clip-rule="nonzero"/></clipPath><clipPath id="27c00b3417"><path d="M 159.203125 107.375 L 178.507812 107.375 L 178.507812 126.679688 L 159.203125 126.679688 Z M 159.203125 107.375 " clip-rule="nonzero"/></clipPath><clipPath id="d709fb9956"><path d="M 168.855469 107.375 C 163.523438 107.375 159.203125 111.695312 159.203125 117.027344 C 159.203125 122.359375 163.523438 126.679688 168.855469 126.679688 C 174.1875 126.679688 178.507812 122.359375 178.507812 117.027344 C 178.507812 111.695312 174.1875 107.375 168.855469 107.375 Z M 168.855469 107.375 " clip-rule="nonzero"/></clipPath><clipPath id="a0a60f49e3"><path d="M 181.882812 107.375 L 201.191406 107.375 L 201.191406 126.679688 L 181.882812 126.679688 Z M 181.882812 107.375 " clip-rule="nonzero"/></clipPath><clipPath id="4625fdabaf"><path d="M 191.539062 107.375 C 186.207031 107.375 181.882812 111.695312 181.882812 117.027344 C 181.882812 122.359375 186.207031 126.679688 191.539062 126.679688 C 196.867188 126.679688 201.191406 122.359375 201.191406 117.027344 C 201.191406 111.695312 196.867188 107.375 191.539062 107.375 Z M 191.539062 107.375 " clip-rule="nonzero"/></clipPath><clipPath id="32b9a08c62"><path d="M 0 614.007812 L 116.5 614.007812 L 116.5 730.507812 L 0 730.507812 Z M 0 614.007812 " clip-rule="nonzero"/></clipPath><clipPath id="9b5f235935"><path d="M 58.207031 730.507812 C 26.15625 730.507812 0 704.351562 0 672.214844 C 0 640.167969 26.15625 614.007812 58.207031 614.007812 C 90.339844 614.007812 116.410156 640.167969 116.410156 672.214844 C 116.5 704.351562 90.339844 730.507812 58.207031 730.507812 Z M 58.207031 646.058594 C 43.828125 646.058594 32.046875 657.835938 32.046875 672.214844 C 32.046875 686.59375 43.828125 698.375 58.207031 698.375 C 72.585938 698.375 84.363281 686.59375 84.363281 672.214844 C 84.363281 657.835938 72.671875 646.058594 58.207031 646.058594 Z M 58.207031 646.058594 " clip-rule="nonzero"/></clipPath><clipPath id="997dc43b2d"><path d="M 116.496094 651.015625 L 195.988281 651.015625 L 195.988281 730.507812 L 116.496094 730.507812 Z M 116.496094 651.015625 " clip-rule="nonzero"/></clipPath><clipPath id="38d927b7b8"><path d="M 195.988281 690.757812 C 195.988281 668.808594 178.195312 651.015625 156.246094 651.015625 C 134.296875 651.015625 116.503906 668.808594 116.503906 690.757812 L 116.503906 730.5 L 156.246094 730.5 C 178.195312 730.507812 195.988281 712.707031 195.988281 690.757812 Z M 195.988281 690.757812 " clip-rule="nonzero"/></clipPath><clipPath id="863799b3d2"><path d="M 37.007812 730.507812 L 116.273438 730.507812 L 116.273438 809.777344 L 37.007812 809.777344 Z M 37.007812 730.507812 " clip-rule="nonzero"/></clipPath><clipPath id="86ca5c7565"><path d="M 116.5 730.507812 L 196 730.507812 L 196 809.871094 L 116.5 809.871094 Z M 116.5 730.507812 " clip-rule="nonzero"/></clipPath><clipPath id="8e270d1fa1"><path d="M 195.992188 809.871094 L 116.5 809.871094 L 116.5 730.507812 Z M 195.992188 809.871094 " clip-rule="nonzero"/></clipPath><clipPath id="dbe7743ab8"><path d="M 136.859375 672.257812 L 175.300781 672.257812 L 175.300781 710.699219 L 136.859375 710.699219 Z M 136.859375 672.257812 " clip-rule="nonzero"/></clipPath><clipPath id="bf177c02c3"><path d="M 156.078125 672.257812 C 145.464844 672.257812 136.859375 680.863281 136.859375 691.480469 C 136.859375 702.09375 145.464844 710.699219 156.078125 710.699219 C 166.695312 710.699219 175.300781 702.09375 175.300781 691.480469 C 175.300781 680.863281 166.695312 672.257812 156.078125 672.257812 Z M 156.078125 672.257812 " clip-rule="nonzero"/></clipPath><clipPath id="77a9a89245"><path d="M 37.351562 704.972656 L 98.460938 704.972656 L 98.460938 766.078125 L 37.351562 766.078125 Z M 37.351562 704.972656 " clip-rule="nonzero"/></clipPath><clipPath id="ba47c080ca"><path d="M 67.90625 704.972656 C 51.03125 704.972656 37.351562 718.648438 37.351562 735.523438 C 37.351562 752.398438 51.03125 766.078125 67.90625 766.078125 C 84.78125 766.078125 98.460938 752.398438 98.460938 735.523438 C 98.460938 718.648438 84.78125 704.972656 67.90625 704.972656 Z M 67.90625 704.972656 " clip-rule="nonzero"/></clipPath><clipPath id="7fc48f4d92"><path d="M 558.96875 596.945312 L 810 596.945312 L 810 810 L 558.96875 810 Z M 558.96875 596.945312 " clip-rule="nonzero"/></clipPath><clipPath id="04fc6cbfb2"><path d="M 0 309.011719 L 160.40625 309.011719 L 160.40625 539.261719 L 0 539.261719 Z M 0 309.011719 " clip-rule="nonzero"/></clipPath></defs><rect x="-81" width="972" fill="#ffffff" y="-80.999999" height="971.999992" fill-opacity="1"/><rect x="-81" width="972" fill="#15616d" y="-80.999999" height="971.999992" fill-opacity="1"/><g clip-path="url(#bff72bc2d8)"><g clip-path="url(#71e90dd712)"><path fill="#7ed957" d="M 614.007812 195.984375 L 614.007812 79.484375 L 730.507812 79.484375 L 730.507812 195.984375 Z M 614.007812 195.984375 " fill-opacity="1" fill-rule="nonzero"/></g></g><g clip-path="url(#8585093968)"><g clip-path="url(#fd5cf7b579)"><path fill="#a0bdff" d="M 651.015625 -0.00390625 L 730.507812 -0.00390625 L 730.507812 79.488281 L 651.015625 79.488281 Z M 651.015625 -0.00390625 " fill-opacity="1" fill-rule="nonzero"/></g></g><g clip-path="url(#d6b55d7c98)"><path fill="#001524" d="M 730.507812 79.488281 C 730.507812 123.386719 766.097656 158.976562 810 158.976562 L 810 79.488281 Z M 730.507812 79.488281 " fill-opacity="1" fill-rule="nonzero"/></g><g clip-path="url(#163884f648)"><g clip-path="url(#9e77e0bf7b)"><path fill="#ffecd1" d="M 730.507812 79.484375 L 730.507812 -0.0390625 L 809.871094 -0.0390625 L 809.871094 79.484375 Z M 730.507812 79.484375 " fill-opacity="1" fill-rule="nonzero"/></g></g><g clip-path="url(#c4f4bed8cd)"><g clip-path="url(#75d7044f53)"><path fill="#ffffff" d="M 672.257812 59.125 L 672.257812 20.683594 L 710.699219 20.683594 L 710.699219 59.125 Z M 672.257812 59.125 " fill-opacity="1" fill-rule="nonzero"/></g></g><g clip-path="url(#c15e2f00de)"><g clip-path="url(#7eb66374c6)"><path fill="#ff7d00" d="M 704.972656 158.632812 L 704.972656 97.523438 L 766.078125 97.523438 L 766.078125 158.632812 Z M 704.972656 158.632812 " fill-opacity="1" fill-rule="nonzero"/></g></g><g clip-path="url(#7cfbfc9b84)"><g clip-path="url(#ef479dd2c2)"><path fill="#001524" d="M 93.15625 97.996094 L 546.460938 97.996094 L 546.460938 254.390625 L 93.15625 254.390625 Z M 93.15625 97.996094 " fill-opacity="1" fill-rule="nonzero"/></g></g><g mask="url(#ea37a4e2d2)"><g transform="matrix(1, 0, 0, 1, 136, 149)"><g clip-path="url(#b3a0c1f52b)"><g clip-path="url(#d444507fc2)"><path stroke-linecap="round" transform="matrix(0.529167, 0, 0, 0.529167, 0.519801, 0.321394)" fill="none" stroke-linejoin="miter" d="M 1.498011 1.496477 L 653.281147 1.496477 " stroke="#ffffff" stroke-width="3" stroke-opacity="1" stroke-miterlimit="4"/></g></g></g></g><g clip-path="url(#81ec128044)"><g clip-path="url(#e692f0f350)"><path fill="#ff5757" d="M 136.519531 107.375 L 155.828125 107.375 L 155.828125 126.679688 L 136.519531 126.679688 Z M 136.519531 107.375 " fill-opacity="1" fill-rule="nonzero"/></g></g><g clip-path="url(#27c00b3417)"><g clip-path="url(#d709fb9956)"><path fill="#ffde59" d="M 159.203125 107.375 L 178.507812 107.375 L 178.507812 126.679688 L 159.203125 126.679688 Z M 159.203125 107.375 " fill-opacity="1" fill-rule="nonzero"/></g></g><g clip-path="url(#a0a60f49e3)"><g clip-path="url(#4625fdabaf)"><path fill="#7ed957" d="M 181.882812 107.375 L 201.191406 107.375 L 201.191406 126.679688 L 181.882812 126.679688 Z M 181.882812 107.375 " fill-opacity="1" fill-rule="nonzero"/></g></g><g fill="#ffffff" fill-opacity="1"><g transform="translate(105.416111, 189.495782)"><g/></g></g><g fill="#ffffff" fill-opacity="1"><g transform="translate(115.577777, 189.495782)"><g><path d="M 1.4375 -6.4375 L 8.71875 -10.078125 L 8.71875 -8.546875 L 3.46875 -6 C 3.332031 -5.925781 3.207031 -5.867188 3.09375 -5.828125 C 2.988281 -5.785156 2.894531 -5.75 2.8125 -5.71875 C 2.707031 -5.6875 2.617188 -5.664062 2.546875 -5.65625 L 2.546875 -5.53125 C 2.617188 -5.519531 2.707031 -5.503906 2.8125 -5.484375 C 2.894531 -5.460938 2.988281 -5.425781 3.09375 -5.375 C 3.207031 -5.332031 3.332031 -5.28125 3.46875 -5.21875 L 8.71875 -2.609375 L 8.71875 -1.09375 L 1.4375 -4.75 Z M 1.4375 -6.4375 "/></g></g></g><g fill="#ffffff" fill-opacity="1"><g transform="translate(125.737813, 189.495782)"><g><path d="M 1.359375 -5.84375 C 1.359375 -6.40625 1.429688 -6.910156 1.578125 -7.359375 C 1.734375 -7.816406 1.945312 -8.203125 2.21875 -8.515625 C 2.488281 -8.828125 2.816406 -9.066406 3.203125 -9.234375 C 3.585938 -9.398438 4.015625 -9.484375 4.484375 -9.484375 C 5.171875 -9.484375 5.738281 -9.328125 6.1875 -9.015625 C 6.644531 -8.703125 6.945312 -8.265625 7.09375 -7.703125 L 7.234375 -7.703125 C 7.222656 -7.898438 7.210938 -8.09375 7.203125 -8.28125 C 7.179688 -8.445312 7.164062 -8.625 7.15625 -8.8125 C 7.144531 -9 7.140625 -9.164062 7.140625 -9.3125 L 7.140625 -12.359375 L 8.671875 -12.359375 L 8.671875 0 L 7.234375 0 L 7.234375 -1.609375 L 7.09375 -1.609375 C 6.945312 -1.046875 6.644531 -0.609375 6.1875 -0.296875 C 5.738281 0.015625 5.171875 0.171875 4.484375 0.171875 C 4.015625 0.171875 3.585938 0.0859375 3.203125 -0.078125 C 2.816406 -0.253906 2.488281 -0.492188 2.21875 -0.796875 C 1.945312 -1.109375 1.734375 -1.488281 1.578125 -1.9375 C 1.429688 -2.394531 1.359375 -2.90625 1.359375 -3.46875 Z M 5.0625 -1.15625 C 5.695312 -1.15625 6.203125 -1.363281 6.578125 -1.78125 C 6.953125 -2.195312 7.140625 -2.757812 7.140625 -3.46875 L 7.140625 -5.84375 C 7.140625 -6.550781 6.953125 -7.113281 6.578125 -7.53125 C 6.203125 -7.945312 5.695312 -8.15625 5.0625 -8.15625 C 4.375 -8.15625 3.835938 -7.953125 3.453125 -7.546875 C 3.066406 -7.140625 2.875 -6.570312 2.875 -5.84375 L 2.875 -3.46875 C 2.875 -2.757812 3.066406 -2.195312 3.453125 -1.78125 C 3.847656 -1.363281 4.382812 -1.15625 5.0625 -1.15625 Z M 5.0625 -1.15625 "/></g></g></g><g fill="#ffffff" fill-opacity="1"><g transform="translate(135.897848, 189.495782)"><g><path d="M 1.609375 0 L 1.609375 -1.390625 L 5 -1.390625 L 5 -7.921875 L 2.03125 -7.921875 L 2.03125 -9.3125 L 6.515625 -9.3125 L 6.515625 -1.390625 L 9.3125 -1.390625 L 9.3125 0 Z M 5.328125 -12.953125 L 5.671875 -12.953125 C 6.003906 -12.953125 6.269531 -12.851562 6.46875 -12.65625 C 6.675781 -12.46875 6.78125 -12.222656 6.78125 -11.921875 C 6.78125 -11.617188 6.675781 -11.375 6.46875 -11.1875 C 6.269531 -11.007812 6.003906 -10.921875 5.671875 -10.921875 L 5.328125 -10.921875 C 5.003906 -10.921875 4.738281 -11.007812 4.53125 -11.1875 C 4.332031 -11.363281 4.234375 -11.609375 4.234375 -11.921875 C 4.234375 -12.222656 4.332031 -12.46875 4.53125 -12.65625 C 4.738281 -12.851562 5.003906 -12.953125 5.328125 -12.953125 Z M 5.328125 -12.953125 "/></g></g></g><g fill="#ffffff" fill-opacity="1"><g transform="translate(146.057884, 189.495782)"><g><path d="M 0.84375 -9.3125 L 2.453125 -9.3125 L 4.71875 -2.734375 C 4.8125 -2.472656 4.878906 -2.242188 4.921875 -2.046875 C 4.972656 -1.847656 5.007812 -1.679688 5.03125 -1.546875 C 5.050781 -1.367188 5.0625 -1.21875 5.0625 -1.09375 L 5.21875 -1.09375 C 5.207031 -1.21875 5.210938 -1.367188 5.234375 -1.546875 C 5.253906 -1.679688 5.28125 -1.847656 5.3125 -2.046875 C 5.351562 -2.242188 5.414062 -2.472656 5.5 -2.734375 L 7.65625 -9.3125 L 9.3125 -9.3125 L 5.984375 0 L 4.25 0 Z M 0.84375 -9.3125 "/></g></g></g><g fill="#ffffff" fill-opacity="1"><g transform="translate(156.21792, 189.495782)"><g/></g></g><g fill="#ffffff" fill-opacity="1"><g transform="translate(166.377955, 189.495782)"><g><path d="M 5.21875 0.171875 C 4.644531 0.171875 4.128906 0.0859375 3.671875 -0.078125 C 3.210938 -0.253906 2.820312 -0.5 2.5 -0.8125 C 2.175781 -1.125 1.925781 -1.503906 1.75 -1.953125 C 1.570312 -2.410156 1.484375 -2.914062 1.484375 -3.46875 L 1.484375 -5.84375 C 1.484375 -6.394531 1.570312 -6.894531 1.75 -7.34375 C 1.925781 -7.800781 2.175781 -8.1875 2.5 -8.5 C 2.820312 -8.820312 3.210938 -9.066406 3.671875 -9.234375 C 4.128906 -9.398438 4.644531 -9.484375 5.21875 -9.484375 C 6.25 -9.484375 7.09375 -9.203125 7.75 -8.640625 C 8.40625 -8.085938 8.800781 -7.320312 8.9375 -6.34375 L 7.421875 -6.34375 C 7.335938 -6.894531 7.09375 -7.328125 6.6875 -7.640625 C 6.289062 -7.960938 5.800781 -8.125 5.21875 -8.125 C 4.539062 -8.125 4.003906 -7.921875 3.609375 -7.515625 C 3.210938 -7.109375 3.015625 -6.550781 3.015625 -5.84375 L 3.015625 -3.46875 C 3.015625 -2.757812 3.207031 -2.203125 3.59375 -1.796875 C 3.988281 -1.390625 4.53125 -1.1875 5.21875 -1.1875 C 5.800781 -1.1875 6.289062 -1.347656 6.6875 -1.671875 C 7.09375 -1.992188 7.335938 -2.425781 7.421875 -2.96875 L 8.9375 -2.96875 C 8.789062 -1.976562 8.382812 -1.207031 7.71875 -0.65625 C 7.0625 -0.101562 6.226562 0.171875 5.21875 0.171875 Z M 5.21875 0.171875 "/></g></g></g><g fill="#ffffff" fill-opacity="1"><g transform="translate(176.537991, 189.495782)"><g><path d="M 5.28125 -12.359375 L 5.28125 -2.703125 C 5.28125 -2.285156 5.394531 -1.960938 5.625 -1.734375 C 5.851562 -1.503906 6.164062 -1.390625 6.5625 -1.390625 L 9.3125 -1.390625 L 9.3125 0 L 6.5625 0 C 5.6875 0 5 -0.238281 4.5 -0.71875 C 4.007812 -1.195312 3.765625 -1.859375 3.765625 -2.703125 L 3.765625 -10.96875 L 0.671875 -10.96875 L 0.671875 -12.359375 Z M 5.28125 -12.359375 "/></g></g></g><g fill="#ffffff" fill-opacity="1"><g transform="translate(186.698026, 189.495782)"><g><path d="M 1.0625 -2.703125 C 1.0625 -3.148438 1.140625 -3.550781 1.296875 -3.90625 C 1.453125 -4.257812 1.671875 -4.5625 1.953125 -4.8125 C 2.242188 -5.0625 2.59375 -5.253906 3 -5.390625 C 3.40625 -5.523438 3.863281 -5.59375 4.375 -5.59375 L 7.140625 -5.59375 L 7.140625 -6.34375 C 7.140625 -6.925781 6.953125 -7.378906 6.578125 -7.703125 C 6.203125 -8.023438 5.660156 -8.1875 4.953125 -8.1875 C 4.429688 -8.1875 3.984375 -8.085938 3.609375 -7.890625 C 3.242188 -7.703125 3 -7.4375 2.875 -7.09375 L 1.359375 -7.09375 C 1.515625 -7.832031 1.914062 -8.414062 2.5625 -8.84375 C 3.21875 -9.269531 4.023438 -9.484375 4.984375 -9.484375 C 6.128906 -9.484375 7.03125 -9.210938 7.6875 -8.671875 C 8.34375 -8.140625 8.671875 -7.394531 8.671875 -6.4375 L 8.671875 0 L 7.28125 0 L 7.28125 -1.78125 L 7.140625 -1.78125 C 6.992188 -1.175781 6.648438 -0.695312 6.109375 -0.34375 C 5.566406 0 4.90625 0.171875 4.125 0.171875 C 3.195312 0.171875 2.453125 -0.0859375 1.890625 -0.609375 C 1.335938 -1.128906 1.0625 -1.828125 1.0625 -2.703125 Z M 4.46875 -1.078125 C 4.851562 -1.078125 5.207031 -1.128906 5.53125 -1.234375 C 5.863281 -1.335938 6.144531 -1.484375 6.375 -1.671875 C 6.613281 -1.859375 6.800781 -2.070312 6.9375 -2.3125 C 7.070312 -2.5625 7.140625 -2.835938 7.140625 -3.140625 L 7.140625 -4.40625 L 4.40625 -4.40625 C 3.84375 -4.40625 3.398438 -4.253906 3.078125 -3.953125 C 2.753906 -3.660156 2.59375 -3.257812 2.59375 -2.75 C 2.59375 -2.226562 2.753906 -1.816406 3.078125 -1.515625 C 3.410156 -1.222656 3.875 -1.078125 4.46875 -1.078125 Z M 4.46875 -1.078125 "/></g></g></g><g fill="#ffffff" fill-opacity="1"><g transform="translate(196.858062, 189.495782)"><g><path d="M 4.828125 0.171875 C 3.847656 0.171875 3.035156 -0.0507812 2.390625 -0.5 C 1.753906 -0.945312 1.390625 -1.539062 1.296875 -2.28125 L 2.90625 -2.28125 C 2.976562 -1.957031 3.1875 -1.691406 3.53125 -1.484375 C 3.882812 -1.285156 4.316406 -1.1875 4.828125 -1.1875 L 5.296875 -1.1875 C 5.910156 -1.1875 6.382812 -1.3125 6.71875 -1.5625 C 7.0625 -1.820312 7.234375 -2.164062 7.234375 -2.59375 C 7.234375 -3.320312 6.710938 -3.765625 5.671875 -3.921875 L 4.265625 -4.125 C 3.347656 -4.269531 2.664062 -4.5625 2.21875 -5 C 1.769531 -5.4375 1.546875 -6.050781 1.546875 -6.84375 C 1.546875 -7.675781 1.835938 -8.320312 2.421875 -8.78125 C 3.015625 -9.25 3.84375 -9.484375 4.90625 -9.484375 L 5.390625 -9.484375 C 5.835938 -9.484375 6.253906 -9.425781 6.640625 -9.3125 C 7.023438 -9.195312 7.363281 -9.035156 7.65625 -8.828125 C 7.945312 -8.617188 8.1875 -8.367188 8.375 -8.078125 C 8.5625 -7.796875 8.679688 -7.476562 8.734375 -7.125 L 7.125 -7.125 C 7.0625 -7.425781 6.867188 -7.664062 6.546875 -7.84375 C 6.234375 -8.03125 5.847656 -8.125 5.390625 -8.125 L 4.90625 -8.125 C 4.332031 -8.125 3.882812 -8.007812 3.5625 -7.78125 C 3.238281 -7.5625 3.078125 -7.226562 3.078125 -6.78125 C 3.078125 -6.414062 3.1875 -6.140625 3.40625 -5.953125 C 3.632812 -5.765625 3.992188 -5.640625 4.484375 -5.578125 L 5.890625 -5.375 C 6.898438 -5.226562 7.632812 -4.929688 8.09375 -4.484375 C 8.550781 -4.046875 8.78125 -3.421875 8.78125 -2.609375 C 8.78125 -1.734375 8.476562 -1.050781 7.875 -0.5625 C 7.269531 -0.0703125 6.410156 0.171875 5.296875 0.171875 Z M 4.828125 0.171875 "/></g></g></g><g fill="#ffffff" fill-opacity="1"><g transform="translate(207.018097, 189.495782)"><g><path d="M 4.828125 0.171875 C 3.847656 0.171875 3.035156 -0.0507812 2.390625 -0.5 C 1.753906 -0.945312 1.390625 -1.539062 1.296875 -2.28125 L 2.90625 -2.28125 C 2.976562 -1.957031 3.1875 -1.691406 3.53125 -1.484375 C 3.882812 -1.285156 4.316406 -1.1875 4.828125 -1.1875 L 5.296875 -1.1875 C 5.910156 -1.1875 6.382812 -1.3125 6.71875 -1.5625 C 7.0625 -1.820312 7.234375 -2.164062 7.234375 -2.59375 C 7.234375 -3.320312 6.710938 -3.765625 5.671875 -3.921875 L 4.265625 -4.125 C 3.347656 -4.269531 2.664062 -4.5625 2.21875 -5 C 1.769531 -5.4375 1.546875 -6.050781 1.546875 -6.84375 C 1.546875 -7.675781 1.835938 -8.320312 2.421875 -8.78125 C 3.015625 -9.25 3.84375 -9.484375 4.90625 -9.484375 L 5.390625 -9.484375 C 5.835938 -9.484375 6.253906 -9.425781 6.640625 -9.3125 C 7.023438 -9.195312 7.363281 -9.035156 7.65625 -8.828125 C 7.945312 -8.617188 8.1875 -8.367188 8.375 -8.078125 C 8.5625 -7.796875 8.679688 -7.476562 8.734375 -7.125 L 7.125 -7.125 C 7.0625 -7.425781 6.867188 -7.664062 6.546875 -7.84375 C 6.234375 -8.03125 5.847656 -8.125 5.390625 -8.125 L 4.90625 -8.125 C 4.332031 -8.125 3.882812 -8.007812 3.5625 -7.78125 C 3.238281 -7.5625 3.078125 -7.226562 3.078125 -6.78125 C 3.078125 -6.414062 3.1875 -6.140625 3.40625 -5.953125 C 3.632812 -5.765625 3.992188 -5.640625 4.484375 -5.578125 L 5.890625 -5.375 C 6.898438 -5.226562 7.632812 -4.929688 8.09375 -4.484375 C 8.550781 -4.046875 8.78125 -3.421875 8.78125 -2.609375 C 8.78125 -1.734375 8.476562 -1.050781 7.875 -0.5625 C 7.269531 -0.0703125 6.410156 0.171875 5.296875 0.171875 Z M 4.828125 0.171875 "/></g></g></g><g fill="#ffffff" fill-opacity="1"><g transform="translate(217.178133, 189.495782)"><g><path d="M 1.359375 -4.234375 L 8.8125 -4.234375 L 8.8125 -2.875 L 1.359375 -2.875 Z M 1.359375 -6.9375 L 1.359375 -8.296875 L 8.8125 -8.296875 L 8.8125 -6.9375 Z M 1.359375 -6.9375 "/></g></g></g><g fill="#ffffff" fill-opacity="1"><g transform="translate(227.338168, 189.495782)"><g><path d="M 5.984375 -12.359375 L 7.625 -12.359375 L 7.625 -9.828125 L 7.4375 -7.28125 L 6.1875 -7.28125 L 5.984375 -9.828125 Z M 2.546875 -9.828125 L 2.546875 -12.359375 L 4.1875 -12.359375 L 4.1875 -9.828125 L 4 -7.28125 L 2.75 -7.28125 Z M 2.546875 -9.828125 "/></g></g></g><g fill="#ffffff" fill-opacity="1"><g transform="translate(237.498204, 189.495782)"><g><path d="M 2.9375 -9.3125 L 2.9375 -7.703125 L 3.0625 -7.703125 C 3.207031 -8.265625 3.503906 -8.703125 3.953125 -9.015625 C 4.410156 -9.328125 4.984375 -9.484375 5.671875 -9.484375 C 6.148438 -9.484375 6.578125 -9.398438 6.953125 -9.234375 C 7.335938 -9.066406 7.664062 -8.828125 7.9375 -8.515625 C 8.207031 -8.203125 8.421875 -7.816406 8.578125 -7.359375 C 8.734375 -6.910156 8.8125 -6.40625 8.8125 -5.84375 L 8.8125 -3.46875 C 8.8125 -2.90625 8.734375 -2.394531 8.578125 -1.9375 C 8.421875 -1.488281 8.207031 -1.109375 7.9375 -0.796875 C 7.664062 -0.492188 7.335938 -0.253906 6.953125 -0.078125 C 6.578125 0.0859375 6.148438 0.171875 5.671875 0.171875 C 4.984375 0.171875 4.410156 0.015625 3.953125 -0.296875 C 3.503906 -0.609375 3.207031 -1.046875 3.0625 -1.609375 L 2.9375 -1.609375 C 2.945312 -1.421875 2.960938 -1.226562 2.984375 -1.03125 C 2.992188 -0.863281 3 -0.6875 3 -0.5 C 3.007812 -0.320312 3.015625 -0.15625 3.015625 0 L 3.015625 2.796875 L 1.484375 2.796875 L 1.484375 -9.3125 Z M 3.015625 -3.46875 C 3.015625 -2.757812 3.203125 -2.195312 3.578125 -1.78125 C 3.960938 -1.363281 4.46875 -1.15625 5.09375 -1.15625 C 5.769531 -1.15625 6.300781 -1.363281 6.6875 -1.78125 C 7.082031 -2.195312 7.28125 -2.757812 7.28125 -3.46875 L 7.28125 -5.84375 C 7.28125 -6.570312 7.085938 -7.140625 6.703125 -7.546875 C 6.316406 -7.953125 5.78125 -8.15625 5.09375 -8.15625 C 4.46875 -8.15625 3.960938 -7.945312 3.578125 -7.53125 C 3.203125 -7.113281 3.015625 -6.550781 3.015625 -5.84375 Z M 3.015625 -3.46875 "/></g></g></g><g fill="#ffffff" fill-opacity="1"><g transform="translate(247.65824, 189.495782)"><g><path d="M 2.875 -3.46875 C 2.875 -2.757812 3.066406 -2.203125 3.453125 -1.796875 C 3.847656 -1.390625 4.390625 -1.1875 5.078125 -1.1875 C 5.753906 -1.1875 6.289062 -1.390625 6.6875 -1.796875 C 7.082031 -2.203125 7.28125 -2.757812 7.28125 -3.46875 L 7.28125 -5.84375 C 7.28125 -6.550781 7.082031 -7.109375 6.6875 -7.515625 C 6.289062 -7.921875 5.753906 -8.125 5.078125 -8.125 C 4.398438 -8.125 3.863281 -7.921875 3.46875 -7.515625 C 3.070312 -7.109375 2.875 -6.550781 2.875 -5.84375 Z M 1.359375 -5.84375 C 1.359375 -6.40625 1.441406 -6.910156 1.609375 -7.359375 C 1.785156 -7.804688 2.035156 -8.1875 2.359375 -8.5 C 2.679688 -8.820312 3.070312 -9.066406 3.53125 -9.234375 C 3.988281 -9.398438 4.503906 -9.484375 5.078125 -9.484375 C 6.234375 -9.484375 7.144531 -9.160156 7.8125 -8.515625 C 8.476562 -7.867188 8.8125 -6.984375 8.8125 -5.859375 L 8.8125 -3.46875 C 8.8125 -2.90625 8.722656 -2.394531 8.546875 -1.9375 C 8.378906 -1.488281 8.132812 -1.109375 7.8125 -0.796875 C 7.488281 -0.492188 7.09375 -0.253906 6.625 -0.078125 C 6.164062 0.0859375 5.648438 0.171875 5.078125 0.171875 C 4.503906 0.171875 3.988281 0.0859375 3.53125 -0.078125 C 3.070312 -0.253906 2.679688 -0.5 2.359375 -0.8125 C 2.035156 -1.125 1.785156 -1.503906 1.609375 -1.953125 C 1.441406 -2.410156 1.359375 -2.914062 1.359375 -3.46875 Z M 1.359375 -5.84375 "/></g></g></g><g fill="#ffffff" fill-opacity="1"><g transform="translate(257.818275, 189.495782)"><g><path d="M 1.890625 -9.3125 L 3.34375 -9.3125 L 3.34375 -7.703125 L 3.46875 -7.703125 C 3.613281 -8.253906 3.914062 -8.6875 4.375 -9 C 4.84375 -9.320312 5.414062 -9.484375 6.09375 -9.484375 C 7.082031 -9.484375 7.851562 -9.175781 8.40625 -8.5625 C 8.96875 -7.945312 9.25 -7.101562 9.25 -6.03125 L 9.25 -5.5 L 7.71875 -5.5 L 7.71875 -5.84375 C 7.71875 -6.570312 7.535156 -7.132812 7.171875 -7.53125 C 6.804688 -7.9375 6.285156 -8.140625 5.609375 -8.140625 C 4.941406 -8.140625 4.410156 -7.929688 4.015625 -7.515625 C 3.617188 -7.109375 3.421875 -6.550781 3.421875 -5.84375 L 3.421875 0 L 1.890625 0 Z M 1.890625 -9.3125 "/></g></g></g><g fill="#ffffff" fill-opacity="1"><g transform="translate(267.978311, 189.495782)"><g><path d="M 1.015625 -9.3125 L 3.71875 -9.3125 L 3.71875 -12.1875 L 5.25 -12.1875 L 5.25 -9.3125 L 8.890625 -9.3125 L 8.890625 -7.921875 L 5.25 -7.921875 L 5.25 -2.40625 C 5.25 -2.09375 5.347656 -1.84375 5.546875 -1.65625 C 5.742188 -1.476562 6.007812 -1.390625 6.34375 -1.390625 L 8.71875 -1.390625 L 8.71875 0 L 6.34375 0 C 5.550781 0 4.914062 -0.21875 4.4375 -0.65625 C 3.957031 -1.101562 3.71875 -1.6875 3.71875 -2.40625 L 3.71875 -7.921875 L 1.015625 -7.921875 Z M 1.015625 -9.3125 "/></g></g></g><g fill="#ffffff" fill-opacity="1"><g transform="translate(278.138346, 189.495782)"><g><path d="M 1.015625 -7 L 1.015625 -8.390625 L 3.71875 -8.390625 L 3.71875 -10 C 3.71875 -10.738281 3.945312 -11.316406 4.40625 -11.734375 C 4.875 -12.148438 5.515625 -12.359375 6.328125 -12.359375 L 9.0625 -12.359375 L 9.0625 -10.96875 L 6.328125 -10.96875 C 5.609375 -10.96875 5.25 -10.644531 5.25 -10 L 5.25 -8.390625 L 9.0625 -8.390625 L 9.0625 -7 L 5.25 -7 L 5.25 0 L 3.71875 0 L 3.71875 -7 Z M 1.015625 -7 "/></g></g></g><g fill="#ffffff" fill-opacity="1"><g transform="translate(288.298382, 189.495782)"><g><path d="M 2.875 -3.46875 C 2.875 -2.757812 3.066406 -2.203125 3.453125 -1.796875 C 3.847656 -1.390625 4.390625 -1.1875 5.078125 -1.1875 C 5.753906 -1.1875 6.289062 -1.390625 6.6875 -1.796875 C 7.082031 -2.203125 7.28125 -2.757812 7.28125 -3.46875 L 7.28125 -5.84375 C 7.28125 -6.550781 7.082031 -7.109375 6.6875 -7.515625 C 6.289062 -7.921875 5.753906 -8.125 5.078125 -8.125 C 4.398438 -8.125 3.863281 -7.921875 3.46875 -7.515625 C 3.070312 -7.109375 2.875 -6.550781 2.875 -5.84375 Z M 1.359375 -5.84375 C 1.359375 -6.40625 1.441406 -6.910156 1.609375 -7.359375 C 1.785156 -7.804688 2.035156 -8.1875 2.359375 -8.5 C 2.679688 -8.820312 3.070312 -9.066406 3.53125 -9.234375 C 3.988281 -9.398438 4.503906 -9.484375 5.078125 -9.484375 C 6.234375 -9.484375 7.144531 -9.160156 7.8125 -8.515625 C 8.476562 -7.867188 8.8125 -6.984375 8.8125 -5.859375 L 8.8125 -3.46875 C 8.8125 -2.90625 8.722656 -2.394531 8.546875 -1.9375 C 8.378906 -1.488281 8.132812 -1.109375 7.8125 -0.796875 C 7.488281 -0.492188 7.09375 -0.253906 6.625 -0.078125 C 6.164062 0.0859375 5.648438 0.171875 5.078125 0.171875 C 4.503906 0.171875 3.988281 0.0859375 3.53125 -0.078125 C 3.070312 -0.253906 2.679688 -0.5 2.359375 -0.8125 C 2.035156 -1.125 1.785156 -1.503906 1.609375 -1.953125 C 1.441406 -2.410156 1.359375 -2.914062 1.359375 -3.46875 Z M 1.359375 -5.84375 "/></g></g></g><g fill="#ffffff" fill-opacity="1"><g transform="translate(298.458417, 189.495782)"><g><path d="M 5.28125 -12.359375 L 5.28125 -2.703125 C 5.28125 -2.285156 5.394531 -1.960938 5.625 -1.734375 C 5.851562 -1.503906 6.164062 -1.390625 6.5625 -1.390625 L 9.3125 -1.390625 L 9.3125 0 L 6.5625 0 C 5.6875 0 5 -0.238281 4.5 -0.71875 C 4.007812 -1.195312 3.765625 -1.859375 3.765625 -2.703125 L 3.765625 -10.96875 L 0.671875 -10.96875 L 0.671875 -12.359375 Z M 5.28125 -12.359375 "/></g></g></g><g fill="#ffffff" fill-opacity="1"><g transform="translate(308.618453, 189.495782)"><g><path d="M 1.609375 0 L 1.609375 -1.390625 L 5 -1.390625 L 5 -7.921875 L 2.03125 -7.921875 L 2.03125 -9.3125 L 6.515625 -9.3125 L 6.515625 -1.390625 L 9.3125 -1.390625 L 9.3125 0 Z M 5.328125 -12.953125 L 5.671875 -12.953125 C 6.003906 -12.953125 6.269531 -12.851562 6.46875 -12.65625 C 6.675781 -12.46875 6.78125 -12.222656 6.78125 -11.921875 C 6.78125 -11.617188 6.675781 -11.375 6.46875 -11.1875 C 6.269531 -11.007812 6.003906 -10.921875 5.671875 -10.921875 L 5.328125 -10.921875 C 5.003906 -10.921875 4.738281 -11.007812 4.53125 -11.1875 C 4.332031 -11.363281 4.234375 -11.609375 4.234375 -11.921875 C 4.234375 -12.222656 4.332031 -12.46875 4.53125 -12.65625 C 4.738281 -12.851562 5.003906 -12.953125 5.328125 -12.953125 Z M 5.328125 -12.953125 "/></g></g></g><g fill="#ffffff" fill-opacity="1"><g transform="translate(318.778488, 189.495782)"><g><path d="M 2.875 -3.46875 C 2.875 -2.757812 3.066406 -2.203125 3.453125 -1.796875 C 3.847656 -1.390625 4.390625 -1.1875 5.078125 -1.1875 C 5.753906 -1.1875 6.289062 -1.390625 6.6875 -1.796875 C 7.082031 -2.203125 7.28125 -2.757812 7.28125 -3.46875 L 7.28125 -5.84375 C 7.28125 -6.550781 7.082031 -7.109375 6.6875 -7.515625 C 6.289062 -7.921875 5.753906 -8.125 5.078125 -8.125 C 4.398438 -8.125 3.863281 -7.921875 3.46875 -7.515625 C 3.070312 -7.109375 2.875 -6.550781 2.875 -5.84375 Z M 1.359375 -5.84375 C 1.359375 -6.40625 1.441406 -6.910156 1.609375 -7.359375 C 1.785156 -7.804688 2.035156 -8.1875 2.359375 -8.5 C 2.679688 -8.820312 3.070312 -9.066406 3.53125 -9.234375 C 3.988281 -9.398438 4.503906 -9.484375 5.078125 -9.484375 C 6.234375 -9.484375 7.144531 -9.160156 7.8125 -8.515625 C 8.476562 -7.867188 8.8125 -6.984375 8.8125 -5.859375 L 8.8125 -3.46875 C 8.8125 -2.90625 8.722656 -2.394531 8.546875 -1.9375 C 8.378906 -1.488281 8.132812 -1.109375 7.8125 -0.796875 C 7.488281 -0.492188 7.09375 -0.253906 6.625 -0.078125 C 6.164062 0.0859375 5.648438 0.171875 5.078125 0.171875 C 4.503906 0.171875 3.988281 0.0859375 3.53125 -0.078125 C 3.070312 -0.253906 2.679688 -0.5 2.359375 -0.8125 C 2.035156 -1.125 1.785156 -1.503906 1.609375 -1.953125 C 1.441406 -2.410156 1.359375 -2.914062 1.359375 -3.46875 Z M 1.359375 -5.84375 "/></g></g></g><g fill="#ffffff" fill-opacity="1"><g transform="translate(328.938524, 189.495782)"><g><path d="M 5.21875 0.171875 C 4.644531 0.171875 4.128906 0.0859375 3.671875 -0.078125 C 3.210938 -0.253906 2.820312 -0.5 2.5 -0.8125 C 2.175781 -1.125 1.925781 -1.503906 1.75 -1.953125 C 1.570312 -2.410156 1.484375 -2.914062 1.484375 -3.46875 L 1.484375 -5.84375 C 1.484375 -6.394531 1.570312 -6.894531 1.75 -7.34375 C 1.925781 -7.800781 2.175781 -8.1875 2.5 -8.5 C 2.820312 -8.820312 3.210938 -9.066406 3.671875 -9.234375 C 4.128906 -9.398438 4.644531 -9.484375 5.21875 -9.484375 C 6.25 -9.484375 7.09375 -9.203125 7.75 -8.640625 C 8.40625 -8.085938 8.800781 -7.320312 8.9375 -6.34375 L 7.421875 -6.34375 C 7.335938 -6.894531 7.09375 -7.328125 6.6875 -7.640625 C 6.289062 -7.960938 5.800781 -8.125 5.21875 -8.125 C 4.539062 -8.125 4.003906 -7.921875 3.609375 -7.515625 C 3.210938 -7.109375 3.015625 -6.550781 3.015625 -5.84375 L 3.015625 -3.46875 C 3.015625 -2.757812 3.207031 -2.203125 3.59375 -1.796875 C 3.988281 -1.390625 4.53125 -1.1875 5.21875 -1.1875 C 5.800781 -1.1875 6.289062 -1.347656 6.6875 -1.671875 C 7.09375 -1.992188 7.335938 -2.425781 7.421875 -2.96875 L 8.9375 -2.96875 C 8.789062 -1.976562 8.382812 -1.207031 7.71875 -0.65625 C 7.0625 -0.101562 6.226562 0.171875 5.21875 0.171875 Z M 5.21875 0.171875 "/></g></g></g><g fill="#ffffff" fill-opacity="1"><g transform="translate(339.09856, 189.495782)"><g><path d="M 5.1875 -12.359375 C 6.25 -12.359375 7.101562 -12.066406 7.75 -11.484375 C 8.394531 -10.910156 8.78125 -10.101562 8.90625 -9.0625 L 7.390625 -9.0625 C 7.316406 -9.664062 7.082031 -10.140625 6.6875 -10.484375 C 6.300781 -10.835938 5.800781 -11.015625 5.1875 -11.015625 C 4.507812 -11.015625 3.972656 -10.8125 3.578125 -10.40625 C 3.179688 -10 2.984375 -9.4375 2.984375 -8.71875 L 2.984375 -3.46875 C 2.984375 -2.757812 3.175781 -2.203125 3.5625 -1.796875 C 3.957031 -1.390625 4.5 -1.1875 5.1875 -1.1875 C 5.800781 -1.1875 6.300781 -1.359375 6.6875 -1.703125 C 7.082031 -2.046875 7.316406 -2.523438 7.390625 -3.140625 L 8.90625 -3.140625 C 8.78125 -2.097656 8.394531 -1.285156 7.75 -0.703125 C 7.101562 -0.117188 6.25 0.171875 5.1875 0.171875 C 4.601562 0.171875 4.082031 0.0859375 3.625 -0.078125 C 3.175781 -0.253906 2.789062 -0.5 2.46875 -0.8125 C 2.144531 -1.125 1.894531 -1.503906 1.71875 -1.953125 C 1.539062 -2.410156 1.453125 -2.914062 1.453125 -3.46875 L 1.453125 -8.71875 C 1.453125 -9.269531 1.539062 -9.769531 1.71875 -10.21875 C 1.894531 -10.675781 2.144531 -11.0625 2.46875 -11.375 C 2.789062 -11.695312 3.175781 -11.941406 3.625 -12.109375 C 4.082031 -12.273438 4.601562 -12.359375 5.1875 -12.359375 Z M 5.1875 -12.359375 "/></g></g></g><g fill="#ffffff" fill-opacity="1"><g transform="translate(349.258595, 189.495782)"><g><path d="M 2.875 -3.46875 C 2.875 -2.757812 3.066406 -2.203125 3.453125 -1.796875 C 3.847656 -1.390625 4.390625 -1.1875 5.078125 -1.1875 C 5.753906 -1.1875 6.289062 -1.390625 6.6875 -1.796875 C 7.082031 -2.203125 7.28125 -2.757812 7.28125 -3.46875 L 7.28125 -5.84375 C 7.28125 -6.550781 7.082031 -7.109375 6.6875 -7.515625 C 6.289062 -7.921875 5.753906 -8.125 5.078125 -8.125 C 4.398438 -8.125 3.863281 -7.921875 3.46875 -7.515625 C 3.070312 -7.109375 2.875 -6.550781 2.875 -5.84375 Z M 1.359375 -5.84375 C 1.359375 -6.40625 1.441406 -6.910156 1.609375 -7.359375 C 1.785156 -7.804688 2.035156 -8.1875 2.359375 -8.5 C 2.679688 -8.820312 3.070312 -9.066406 3.53125 -9.234375 C 3.988281 -9.398438 4.503906 -9.484375 5.078125 -9.484375 C 6.234375 -9.484375 7.144531 -9.160156 7.8125 -8.515625 C 8.476562 -7.867188 8.8125 -6.984375 8.8125 -5.859375 L 8.8125 -3.46875 C 8.8125 -2.90625 8.722656 -2.394531 8.546875 -1.9375 C 8.378906 -1.488281 8.132812 -1.109375 7.8125 -0.796875 C 7.488281 -0.492188 7.09375 -0.253906 6.625 -0.078125 C 6.164062 0.0859375 5.648438 0.171875 5.078125 0.171875 C 4.503906 0.171875 3.988281 0.0859375 3.53125 -0.078125 C 3.070312 -0.253906 2.679688 -0.5 2.359375 -0.8125 C 2.035156 -1.125 1.785156 -1.503906 1.609375 -1.953125 C 1.441406 -2.410156 1.359375 -2.914062 1.359375 -3.46875 Z M 1.359375 -5.84375 "/></g></g></g><g fill="#ffffff" fill-opacity="1"><g transform="translate(359.418631, 189.495782)"><g><path d="M 1.484375 0 L 1.484375 -9.3125 L 2.9375 -9.3125 L 2.9375 -7.703125 L 3.0625 -7.703125 C 3.207031 -8.265625 3.503906 -8.703125 3.953125 -9.015625 C 4.398438 -9.328125 4.957031 -9.484375 5.625 -9.484375 C 6.082031 -9.484375 6.5 -9.40625 6.875 -9.25 C 7.257812 -9.09375 7.582031 -8.867188 7.84375 -8.578125 C 8.113281 -8.285156 8.320312 -7.9375 8.46875 -7.53125 C 8.613281 -7.132812 8.6875 -6.691406 8.6875 -6.203125 L 8.6875 0 L 7.171875 0 L 7.171875 -5.9375 C 7.171875 -6.65625 6.988281 -7.210938 6.625 -7.609375 C 6.257812 -8.003906 5.753906 -8.203125 5.109375 -8.203125 C 4.472656 -8.203125 3.960938 -7.988281 3.578125 -7.5625 C 3.203125 -7.132812 3.015625 -6.5625 3.015625 -5.84375 L 3.015625 0 Z M 1.484375 0 "/></g></g></g><g fill="#ffffff" fill-opacity="1"><g transform="translate(369.578666, 189.495782)"><g><path d="M 1.015625 -9.3125 L 3.71875 -9.3125 L 3.71875 -12.1875 L 5.25 -12.1875 L 5.25 -9.3125 L 8.890625 -9.3125 L 8.890625 -7.921875 L 5.25 -7.921875 L 5.25 -2.40625 C 5.25 -2.09375 5.347656 -1.84375 5.546875 -1.65625 C 5.742188 -1.476562 6.007812 -1.390625 6.34375 -1.390625 L 8.71875 -1.390625 L 8.71875 0 L 6.34375 0 C 5.550781 0 4.914062 -0.21875 4.4375 -0.65625 C 3.957031 -1.101562 3.71875 -1.6875 3.71875 -2.40625 L 3.71875 -7.921875 L 1.015625 -7.921875 Z M 1.015625 -9.3125 "/></g></g></g><g fill="#ffffff" fill-opacity="1"><g transform="translate(379.738702, 189.495782)"><g><path d="M 1.0625 -2.703125 C 1.0625 -3.148438 1.140625 -3.550781 1.296875 -3.90625 C 1.453125 -4.257812 1.671875 -4.5625 1.953125 -4.8125 C 2.242188 -5.0625 2.59375 -5.253906 3 -5.390625 C 3.40625 -5.523438 3.863281 -5.59375 4.375 -5.59375 L 7.140625 -5.59375 L 7.140625 -6.34375 C 7.140625 -6.925781 6.953125 -7.378906 6.578125 -7.703125 C 6.203125 -8.023438 5.660156 -8.1875 4.953125 -8.1875 C 4.429688 -8.1875 3.984375 -8.085938 3.609375 -7.890625 C 3.242188 -7.703125 3 -7.4375 2.875 -7.09375 L 1.359375 -7.09375 C 1.515625 -7.832031 1.914062 -8.414062 2.5625 -8.84375 C 3.21875 -9.269531 4.023438 -9.484375 4.984375 -9.484375 C 6.128906 -9.484375 7.03125 -9.210938 7.6875 -8.671875 C 8.34375 -8.140625 8.671875 -7.394531 8.671875 -6.4375 L 8.671875 0 L 7.28125 0 L 7.28125 -1.78125 L 7.140625 -1.78125 C 6.992188 -1.175781 6.648438 -0.695312 6.109375 -0.34375 C 5.566406 0 4.90625 0.171875 4.125 0.171875 C 3.195312 0.171875 2.453125 -0.0859375 1.890625 -0.609375 C 1.335938 -1.128906 1.0625 -1.828125 1.0625 -2.703125 Z M 4.46875 -1.078125 C 4.851562 -1.078125 5.207031 -1.128906 5.53125 -1.234375 C 5.863281 -1.335938 6.144531 -1.484375 6.375 -1.671875 C 6.613281 -1.859375 6.800781 -2.070312 6.9375 -2.3125 C 7.070312 -2.5625 7.140625 -2.835938 7.140625 -3.140625 L 7.140625 -4.40625 L 4.40625 -4.40625 C 3.84375 -4.40625 3.398438 -4.253906 3.078125 -3.953125 C 2.753906 -3.660156 2.59375 -3.257812 2.59375 -2.75 C 2.59375 -2.226562 2.753906 -1.816406 3.078125 -1.515625 C 3.410156 -1.222656 3.875 -1.078125 4.46875 -1.078125 Z M 4.46875 -1.078125 "/></g></g></g><g fill="#ffffff" fill-opacity="1"><g transform="translate(389.898721, 189.495782)"><g><path d="M 1.609375 0 L 1.609375 -1.390625 L 5 -1.390625 L 5 -7.921875 L 2.03125 -7.921875 L 2.03125 -9.3125 L 6.515625 -9.3125 L 6.515625 -1.390625 L 9.3125 -1.390625 L 9.3125 0 Z M 5.328125 -12.953125 L 5.671875 -12.953125 C 6.003906 -12.953125 6.269531 -12.851562 6.46875 -12.65625 C 6.675781 -12.46875 6.78125 -12.222656 6.78125 -11.921875 C 6.78125 -11.617188 6.675781 -11.375 6.46875 -11.1875 C 6.269531 -11.007812 6.003906 -10.921875 5.671875 -10.921875 L 5.328125 -10.921875 C 5.003906 -10.921875 4.738281 -11.007812 4.53125 -11.1875 C 4.332031 -11.363281 4.234375 -11.609375 4.234375 -11.921875 C 4.234375 -12.222656 4.332031 -12.46875 4.53125 -12.65625 C 4.738281 -12.851562 5.003906 -12.953125 5.328125 -12.953125 Z M 5.328125 -12.953125 "/></g></g></g><g fill="#ffffff" fill-opacity="1"><g transform="translate(400.058772, 189.495782)"><g><path d="M 1.484375 0 L 1.484375 -9.3125 L 2.9375 -9.3125 L 2.9375 -7.703125 L 3.0625 -7.703125 C 3.207031 -8.265625 3.503906 -8.703125 3.953125 -9.015625 C 4.398438 -9.328125 4.957031 -9.484375 5.625 -9.484375 C 6.082031 -9.484375 6.5 -9.40625 6.875 -9.25 C 7.257812 -9.09375 7.582031 -8.867188 7.84375 -8.578125 C 8.113281 -8.285156 8.320312 -7.9375 8.46875 -7.53125 C 8.613281 -7.132812 8.6875 -6.691406 8.6875 -6.203125 L 8.6875 0 L 7.171875 0 L 7.171875 -5.9375 C 7.171875 -6.65625 6.988281 -7.210938 6.625 -7.609375 C 6.257812 -8.003906 5.753906 -8.203125 5.109375 -8.203125 C 4.472656 -8.203125 3.960938 -7.988281 3.578125 -7.5625 C 3.203125 -7.132812 3.015625 -6.5625 3.015625 -5.84375 L 3.015625 0 Z M 1.484375 0 "/></g></g></g><g fill="#ffffff" fill-opacity="1"><g transform="translate(410.218824, 189.495782)"><g><path d="M 5.078125 0.171875 C 3.921875 0.171875 3.007812 -0.144531 2.34375 -0.78125 C 1.6875 -1.414062 1.359375 -2.285156 1.359375 -3.390625 L 1.359375 -5.921875 C 1.359375 -7.035156 1.6875 -7.90625 2.34375 -8.53125 C 3.007812 -9.164062 3.921875 -9.484375 5.078125 -9.484375 C 6.242188 -9.484375 7.15625 -9.164062 7.8125 -8.53125 C 8.476562 -7.90625 8.8125 -7.035156 8.8125 -5.921875 L 8.8125 -4.21875 L 2.875 -4.21875 L 2.875 -3.46875 C 2.875 -2.757812 3.066406 -2.203125 3.453125 -1.796875 C 3.847656 -1.390625 4.390625 -1.1875 5.078125 -1.1875 C 5.585938 -1.1875 6.03125 -1.265625 6.40625 -1.421875 C 6.78125 -1.578125 7.054688 -1.804688 7.234375 -2.109375 L 8.75 -2.109375 C 8.5625 -1.398438 8.132812 -0.84375 7.46875 -0.4375 C 6.8125 -0.03125 6.015625 0.171875 5.078125 0.171875 Z M 7.28125 -5.484375 L 7.28125 -5.921875 C 7.28125 -6.628906 7.085938 -7.171875 6.703125 -7.546875 C 6.316406 -7.929688 5.773438 -8.125 5.078125 -8.125 C 4.378906 -8.125 3.835938 -7.929688 3.453125 -7.546875 C 3.066406 -7.171875 2.875 -6.628906 2.875 -5.921875 L 2.875 -5.484375 Z M 7.28125 -5.484375 "/></g></g></g><g fill="#ffffff" fill-opacity="1"><g transform="translate(420.378875, 189.495782)"><g><path d="M 1.890625 -9.3125 L 3.34375 -9.3125 L 3.34375 -7.703125 L 3.46875 -7.703125 C 3.613281 -8.253906 3.914062 -8.6875 4.375 -9 C 4.84375 -9.320312 5.414062 -9.484375 6.09375 -9.484375 C 7.082031 -9.484375 7.851562 -9.175781 8.40625 -8.5625 C 8.96875 -7.945312 9.25 -7.101562 9.25 -6.03125 L 9.25 -5.5 L 7.71875 -5.5 L 7.71875 -5.84375 C 7.71875 -6.570312 7.535156 -7.132812 7.171875 -7.53125 C 6.804688 -7.9375 6.285156 -8.140625 5.609375 -8.140625 C 4.941406 -8.140625 4.410156 -7.929688 4.015625 -7.515625 C 3.617188 -7.109375 3.421875 -6.550781 3.421875 -5.84375 L 3.421875 0 L 1.890625 0 Z M 1.890625 -9.3125 "/></g></g></g><g fill="#ffffff" fill-opacity="1"><g transform="translate(430.538927, 189.495782)"><g><path d="M 5.984375 -12.359375 L 7.625 -12.359375 L 7.625 -9.828125 L 7.4375 -7.28125 L 6.1875 -7.28125 L 5.984375 -9.828125 Z M 2.546875 -9.828125 L 2.546875 -12.359375 L 4.1875 -12.359375 L 4.1875 -9.828125 L 4 -7.28125 L 2.75 -7.28125 Z M 2.546875 -9.828125 "/></g></g></g><g fill="#ffffff" fill-opacity="1"><g transform="translate(440.698978, 189.495782)"><g><path d="M 1.4375 -2.625 L 6.6875 -5.1875 C 6.820312 -5.25 6.945312 -5.300781 7.0625 -5.34375 C 7.175781 -5.394531 7.28125 -5.429688 7.375 -5.453125 C 7.457031 -5.484375 7.539062 -5.503906 7.625 -5.515625 L 7.625 -5.640625 C 7.539062 -5.648438 7.457031 -5.671875 7.375 -5.703125 C 7.175781 -5.742188 6.945312 -5.832031 6.6875 -5.96875 L 1.4375 -8.578125 L 1.4375 -10.078125 L 8.71875 -6.4375 L 8.71875 -4.75 L 1.4375 -1.09375 Z M 1.4375 -2.625 "/></g></g></g><g fill="#ffffff" fill-opacity="1"><g transform="translate(450.85903, 189.495782)"><g/></g></g><g fill="#ffffff" fill-opacity="1"><g transform="translate(461.019081, 189.495782)"><g><path d="M 1.4375 -6.4375 L 8.71875 -10.078125 L 8.71875 -8.546875 L 3.46875 -6 C 3.332031 -5.925781 3.207031 -5.867188 3.09375 -5.828125 C 2.988281 -5.785156 2.894531 -5.75 2.8125 -5.71875 C 2.707031 -5.6875 2.617188 -5.664062 2.546875 -5.65625 L 2.546875 -5.53125 C 2.617188 -5.519531 2.707031 -5.503906 2.8125 -5.484375 C 2.894531 -5.460938 2.988281 -5.425781 3.09375 -5.375 C 3.207031 -5.332031 3.332031 -5.28125 3.46875 -5.21875 L 8.71875 -2.609375 L 8.71875 -1.09375 L 1.4375 -4.75 Z M 1.4375 -6.4375 "/></g></g></g><g fill="#ffffff" fill-opacity="1"><g transform="translate(471.179132, 189.495782)"><g><path d="M 7.28125 -14.0625 L 8.890625 -14.0625 L 2.875 1.859375 L 1.265625 1.859375 Z M 7.28125 -14.0625 "/></g></g></g><g fill="#ffffff" fill-opacity="1"><g transform="translate(481.339184, 189.495782)"><g><path d="M 1.359375 -5.84375 C 1.359375 -6.40625 1.429688 -6.910156 1.578125 -7.359375 C 1.734375 -7.816406 1.945312 -8.203125 2.21875 -8.515625 C 2.488281 -8.828125 2.816406 -9.066406 3.203125 -9.234375 C 3.585938 -9.398438 4.015625 -9.484375 4.484375 -9.484375 C 5.171875 -9.484375 5.738281 -9.328125 6.1875 -9.015625 C 6.644531 -8.703125 6.945312 -8.265625 7.09375 -7.703125 L 7.234375 -7.703125 C 7.222656 -7.898438 7.210938 -8.09375 7.203125 -8.28125 C 7.179688 -8.445312 7.164062 -8.625 7.15625 -8.8125 C 7.144531 -9 7.140625 -9.164062 7.140625 -9.3125 L 7.140625 -12.359375 L 8.671875 -12.359375 L 8.671875 0 L 7.234375 0 L 7.234375 -1.609375 L 7.09375 -1.609375 C 6.945312 -1.046875 6.644531 -0.609375 6.1875 -0.296875 C 5.738281 0.015625 5.171875 0.171875 4.484375 0.171875 C 4.015625 0.171875 3.585938 0.0859375 3.203125 -0.078125 C 2.816406 -0.253906 2.488281 -0.492188 2.21875 -0.796875 C 1.945312 -1.109375 1.734375 -1.488281 1.578125 -1.9375 C 1.429688 -2.394531 1.359375 -2.90625 1.359375 -3.46875 Z M 5.0625 -1.15625 C 5.695312 -1.15625 6.203125 -1.363281 6.578125 -1.78125 C 6.953125 -2.195312 7.140625 -2.757812 7.140625 -3.46875 L 7.140625 -5.84375 C 7.140625 -6.550781 6.953125 -7.113281 6.578125 -7.53125 C 6.203125 -7.945312 5.695312 -8.15625 5.0625 -8.15625 C 4.375 -8.15625 3.835938 -7.953125 3.453125 -7.546875 C 3.066406 -7.140625 2.875 -6.570312 2.875 -5.84375 L 2.875 -3.46875 C 2.875 -2.757812 3.066406 -2.195312 3.453125 -1.78125 C 3.847656 -1.363281 4.382812 -1.15625 5.0625 -1.15625 Z M 5.0625 -1.15625 "/></g></g></g><g fill="#ffffff" fill-opacity="1"><g transform="translate(491.499235, 189.495782)"><g><path d="M 1.609375 0 L 1.609375 -1.390625 L 5 -1.390625 L 5 -7.921875 L 2.03125 -7.921875 L 2.03125 -9.3125 L 6.515625 -9.3125 L 6.515625 -1.390625 L 9.3125 -1.390625 L 9.3125 0 Z M 5.328125 -12.953125 L 5.671875 -12.953125 C 6.003906 -12.953125 6.269531 -12.851562 6.46875 -12.65625 C 6.675781 -12.46875 6.78125 -12.222656 6.78125 -11.921875 C 6.78125 -11.617188 6.675781 -11.375 6.46875 -11.1875 C 6.269531 -11.007812 6.003906 -10.921875 5.671875 -10.921875 L 5.328125 -10.921875 C 5.003906 -10.921875 4.738281 -11.007812 4.53125 -11.1875 C 4.332031 -11.363281 4.234375 -11.609375 4.234375 -11.921875 C 4.234375 -12.222656 4.332031 -12.46875 4.53125 -12.65625 C 4.738281 -12.851562 5.003906 -12.953125 5.328125 -12.953125 Z M 5.328125 -12.953125 "/></g></g></g><g fill="#ffffff" fill-opacity="1"><g transform="translate(501.659287, 189.495782)"><g><path d="M 0.84375 -9.3125 L 2.453125 -9.3125 L 4.71875 -2.734375 C 4.8125 -2.472656 4.878906 -2.242188 4.921875 -2.046875 C 4.972656 -1.847656 5.007812 -1.679688 5.03125 -1.546875 C 5.050781 -1.367188 5.0625 -1.21875 5.0625 -1.09375 L 5.21875 -1.09375 C 5.207031 -1.21875 5.210938 -1.367188 5.234375 -1.546875 C 5.253906 -1.679688 5.28125 -1.847656 5.3125 -2.046875 C 5.351562 -2.242188 5.414062 -2.472656 5.5 -2.734375 L 7.65625 -9.3125 L 9.3125 -9.3125 L 5.984375 0 L 4.25 0 Z M 0.84375 -9.3125 "/></g></g></g><g fill="#ffffff" fill-opacity="1"><g transform="translate(511.819338, 189.495782)"><g><path d="M 1.4375 -2.625 L 6.6875 -5.1875 C 6.820312 -5.25 6.945312 -5.300781 7.0625 -5.34375 C 7.175781 -5.394531 7.28125 -5.429688 7.375 -5.453125 C 7.457031 -5.484375 7.539062 -5.503906 7.625 -5.515625 L 7.625 -5.640625 C 7.539062 -5.648438 7.457031 -5.671875 7.375 -5.703125 C 7.175781 -5.742188 6.945312 -5.832031 6.6875 -5.96875 L 1.4375 -8.578125 L 1.4375 -10.078125 L 8.71875 -6.4375 L 8.71875 -4.75 L 1.4375 -1.09375 Z M 1.4375 -2.625 "/></g></g></g><g clip-path="url(#32b9a08c62)"><g clip-path="url(#9b5f235935)"><path fill="#7ed957" d="M 0 614.007812 L 116.5 614.007812 L 116.5 730.507812 L 0 730.507812 Z M 0 614.007812 " fill-opacity="1" fill-rule="nonzero"/></g></g><g clip-path="url(#997dc43b2d)"><g clip-path="url(#38d927b7b8)"><path fill="#a0bdff" d="M 195.988281 651.015625 L 195.988281 730.507812 L 116.496094 730.507812 L 116.496094 651.015625 Z M 195.988281 651.015625 " fill-opacity="1" fill-rule="nonzero"/></g></g><g clip-path="url(#863799b3d2)"><path fill="#001524" d="M 116.496094 730.507812 C 72.597656 730.507812 37.007812 766.097656 37.007812 810 L 116.496094 810 Z M 116.496094 730.507812 " fill-opacity="1" fill-rule="nonzero"/></g><g clip-path="url(#86ca5c7565)"><g clip-path="url(#8e270d1fa1)"><path fill="#ffecd1" d="M 116.5 730.507812 L 196.023438 730.507812 L 196.023438 809.871094 L 116.5 809.871094 Z M 116.5 730.507812 " fill-opacity="1" fill-rule="nonzero"/></g></g><g clip-path="url(#dbe7743ab8)"><g clip-path="url(#bf177c02c3)"><path fill="#ffffff" d="M 136.859375 672.257812 L 175.300781 672.257812 L 175.300781 710.699219 L 136.859375 710.699219 Z M 136.859375 672.257812 " fill-opacity="1" fill-rule="nonzero"/></g></g><g clip-path="url(#77a9a89245)"><g clip-path="url(#ba47c080ca)"><path fill="#ff7d00" d="M 37.351562 704.972656 L 98.460938 704.972656 L 98.460938 766.078125 L 37.351562 766.078125 Z M 37.351562 704.972656 " fill-opacity="1" fill-rule="nonzero"/></g></g><path fill="#79bbc8" d="M 743.40625 781.621094 L 563.074219 781.621094 L 563.074219 601.285156 L 743.40625 601.285156 Z M 743.40625 781.621094 " fill-opacity="1" fill-rule="nonzero"/><path fill="#c74c34" d="M 563.074219 781.621094 L 743.40625 781.621094 L 829.816406 822.757812 L 649.515625 822.757812 L 649.503906 822.769531 Z M 563.074219 781.621094 " fill-opacity="1" fill-rule="nonzero"/><path fill="#937cdf" d="M 743.40625 781.621094 L 743.40625 601.285156 L 829.839844 642.433594 L 829.851562 642.433594 L 829.851562 822.757812 L 829.816406 822.757812 Z M 743.40625 781.621094 " fill-opacity="1" fill-rule="nonzero"/><g clip-path="url(#7fc48f4d92)"><path fill="#000000" d="M 558.730469 781.90625 C 558.742188 782.066406 558.75 782.226562 558.78125 782.386719 C 558.804688 782.523438 558.84375 782.65625 558.882812 782.789062 C 558.921875 782.925781 558.957031 783.0625 559.007812 783.195312 C 559.0625 783.332031 559.125 783.457031 559.191406 783.582031 C 559.253906 783.707031 559.316406 783.832031 559.390625 783.949219 C 559.464844 784.066406 559.546875 784.175781 559.632812 784.285156 C 559.71875 784.398438 559.808594 784.511719 559.90625 784.617188 C 560.003906 784.71875 560.109375 784.808594 560.214844 784.902344 C 560.320312 784.996094 560.421875 785.085938 560.539062 785.167969 C 560.671875 785.261719 560.8125 785.339844 560.953125 785.417969 C 561.035156 785.464844 561.109375 785.527344 561.195312 785.566406 L 647.628906 826.714844 C 648.238281 827.003906 648.882812 827.128906 649.515625 827.125 L 829.851562 827.125 C 832.265625 827.125 834.21875 825.167969 834.21875 822.757812 L 834.21875 642.421875 L 834.195312 642.421875 C 834.191406 640.792969 833.285156 639.234375 831.71875 638.488281 L 745.285156 597.339844 C 745.261719 597.328125 745.234375 597.324219 745.207031 597.3125 C 745 597.21875 744.777344 597.148438 744.550781 597.085938 C 744.472656 597.066406 744.398438 597.035156 744.324219 597.015625 C 744.074219 596.964844 743.820312 596.941406 743.558594 596.933594 C 743.507812 596.929688 743.460938 596.914062 743.410156 596.914062 C 743.40625 596.914062 743.402344 596.917969 743.394531 596.917969 L 563.070312 596.917969 C 560.660156 596.917969 558.703125 598.871094 558.703125 601.285156 L 558.703125 781.621094 C 558.703125 781.71875 558.726562 781.808594 558.730469 781.90625 Z M 582.414062 785.992188 L 742.421875 785.992188 L 810.476562 818.386719 L 650.46875 818.386719 Z M 825.480469 815.855469 L 747.777344 778.863281 L 747.777344 608.207031 L 825.480469 645.195312 Z M 567.441406 605.65625 L 739.039062 605.65625 L 739.039062 777.253906 L 567.441406 777.253906 Z M 567.441406 605.65625 " fill-opacity="1" fill-rule="nonzero"/></g><path fill="#c74c34" d="M -24.03125 354.585938 L 156.304688 354.585938 L 156.304688 534.917969 L -24.03125 534.917969 Z M -24.03125 354.585938 " fill-opacity="1" fill-rule="nonzero"/><path fill="#e5af42" d="M 156.304688 354.585938 L -24.03125 354.585938 L -110.441406 313.449219 L 69.859375 313.449219 L 69.871094 313.4375 Z M 156.304688 354.585938 " fill-opacity="1" fill-rule="nonzero"/><g clip-path="url(#04fc6cbfb2)"><path fill="#000000" d="M 160.644531 354.300781 C 160.632812 354.140625 160.625 353.976562 160.59375 353.820312 C 160.570312 353.679688 160.53125 353.550781 160.492188 353.414062 C 160.457031 353.277344 160.417969 353.140625 160.367188 353.011719 C 160.316406 352.875 160.253906 352.75 160.1875 352.621094 C 160.125 352.5 160.0625 352.375 159.988281 352.253906 C 159.914062 352.140625 159.828125 352.03125 159.746094 351.921875 C 159.65625 351.808594 159.570312 351.695312 159.46875 351.589844 C 159.375 351.488281 159.269531 351.398438 159.164062 351.304688 C 159.054688 351.210938 158.953125 351.121094 158.839844 351.035156 C 158.707031 350.941406 158.566406 350.863281 158.425781 350.785156 C 158.34375 350.742188 158.269531 350.679688 158.179688 350.640625 L 71.75 309.492188 C 71.136719 309.203125 70.492188 309.078125 69.859375 309.082031 L 69.859375 309.078125 L -110.472656 309.078125 C -112.886719 309.078125 -114.84375 311.035156 -114.84375 313.449219 L -114.84375 493.785156 L -114.816406 493.785156 C -114.8125 495.410156 -113.910156 496.972656 -112.34375 497.71875 L -25.910156 538.863281 C -25.886719 538.875 -25.859375 538.878906 -25.832031 538.890625 C -25.621094 538.988281 -25.398438 539.058594 -25.171875 539.121094 C -25.097656 539.140625 -25.023438 539.171875 -24.945312 539.1875 C -24.699219 539.242188 -24.441406 539.265625 -24.179688 539.273438 C -24.132812 539.277344 -24.082031 539.289062 -24.035156 539.289062 C -24.027344 539.289062 -24.023438 539.289062 -24.019531 539.289062 L 156.304688 539.289062 C 158.71875 539.289062 160.675781 537.332031 160.675781 534.921875 L 160.675781 354.585938 C 160.671875 354.488281 160.652344 354.398438 160.644531 354.300781 Z M 136.960938 350.214844 L -23.042969 350.214844 L -91.097656 317.816406 L 68.910156 317.816406 Z M -106.105469 320.351562 L -28.398438 357.34375 L -28.398438 528 L -106.105469 491.011719 Z M 151.933594 530.550781 L -19.660156 530.550781 L -19.660156 358.953125 L 151.933594 358.953125 Z M 151.933594 530.550781 " fill-opacity="1" fill-rule="nonzero"/></g><g fill="#ff7d00" fill-opacity="1"><g transform="translate(219.102093, 408.75952)"><g><path d="M 50.9375 -19.84375 C 53.71875 -22.507812 55.109375 -26.316406 55.109375 -31.265625 C 55.109375 -36.210938 53.71875 -40.035156 50.9375 -42.734375 C 48.164062 -45.429688 44.976562 -46.78125 41.375 -46.78125 C 37.78125 -46.78125 34.597656 -45.445312 31.828125 -42.78125 C 29.054688 -40.125 27.671875 -36.320312 27.671875 -31.375 C 27.671875 -26.425781 29.054688 -22.601562 31.828125 -19.90625 C 34.597656 -17.207031 37.78125 -15.859375 41.375 -15.859375 C 44.976562 -15.859375 48.164062 -17.1875 50.9375 -19.84375 Z M 27.671875 -54.546875 C 31.941406 -60.472656 38.066406 -63.4375 46.046875 -63.4375 C 54.035156 -63.4375 60.800781 -60.414062 66.34375 -54.375 C 71.894531 -48.34375 74.671875 -40.640625 74.671875 -31.265625 C 74.671875 -21.890625 71.894531 -14.203125 66.34375 -8.203125 C 60.800781 -2.210938 54.09375 0.78125 46.21875 0.78125 C 38.351562 0.78125 32.171875 -2.515625 27.671875 -9.109375 L 27.671875 29.921875 L 8.4375 29.921875 L 8.4375 -62.75 L 27.671875 -62.75 Z M 27.671875 -54.546875 "/></g></g></g><g fill="#ff7d00" fill-opacity="1"><g transform="translate(297.594311, 408.75952)"><g><path d="M 46.109375 -19.6875 C 48.660156 -22.382812 49.9375 -26.28125 49.9375 -31.375 C 49.9375 -36.476562 48.625 -40.359375 46 -43.015625 C 43.375 -45.679688 40.257812 -47.015625 36.65625 -47.015625 C 33.0625 -47.015625 29.96875 -45.679688 27.375 -43.015625 C 24.789062 -40.359375 23.5 -36.476562 23.5 -31.375 C 23.5 -26.28125 24.828125 -22.382812 27.484375 -19.6875 C 30.148438 -16.988281 33.28125 -15.640625 36.875 -15.640625 C 40.476562 -15.640625 43.554688 -16.988281 46.109375 -19.6875 Z M 13.4375 -8.09375 C 7.101562 -14.019531 3.9375 -21.816406 3.9375 -31.484375 C 3.9375 -41.160156 7.082031 -48.90625 13.375 -54.71875 C 19.675781 -60.53125 27.472656 -63.4375 36.765625 -63.4375 C 46.066406 -63.4375 53.847656 -60.53125 60.109375 -54.71875 C 66.367188 -48.90625 69.5 -41.160156 69.5 -31.484375 C 69.5 -21.816406 66.382812 -14.019531 60.15625 -8.09375 C 53.9375 -2.175781 46.175781 0.78125 36.875 0.78125 C 27.582031 0.78125 19.769531 -2.175781 13.4375 -8.09375 Z M 13.4375 -8.09375 "/></g></g></g><g fill="#ff7d00" fill-opacity="1"><g transform="translate(371.026147, 408.75952)"><g><path d="M 27.671875 -62.75 L 27.671875 -51.0625 C 32.171875 -59.3125 38.164062 -63.4375 45.65625 -63.4375 L 45.65625 -43.859375 L 40.9375 -43.859375 C 36.507812 -43.859375 33.191406 -42.804688 30.984375 -40.703125 C 28.773438 -38.609375 27.671875 -34.9375 27.671875 -29.6875 L 27.671875 0 L 8.4375 0 L 8.4375 -62.75 Z M 27.671875 -62.75 "/></g></g></g><g fill="#ff7d00" fill-opacity="1"><g transform="translate(418.706225, 408.75952)"><g><path d="M 35.09375 -16.3125 L 41.953125 -16.3125 L 41.953125 0 L 32.171875 0 C 25.117188 0 19.660156 -1.550781 15.796875 -4.65625 C 11.941406 -7.769531 10.015625 -13.113281 10.015625 -20.6875 L 10.015625 -46.78125 L 4.15625 -46.78125 L 4.15625 -62.75 L 10.015625 -62.75 L 10.015625 -78.046875 L 29.234375 -78.046875 L 29.234375 -62.75 L 41.84375 -62.75 L 41.84375 -46.78125 L 29.234375 -46.78125 L 29.234375 -20.6875 C 29.234375 -17.769531 31.1875 -16.3125 35.09375 -16.3125 Z M 35.09375 -16.3125 "/></g></g></g><g fill="#ff7d00" fill-opacity="1"><g transform="translate(465.374222, 408.75952)"><g><path d="M 7.875 -31.484375 L 7.875 -47.46875 L 57.359375 -47.46875 L 57.359375 -31.484375 Z M 7.875 -31.484375 "/></g></g></g><g fill="#ff7d00" fill-opacity="1"><g transform="translate(219.102093, 534.009514)"><g><path d="M 35.875 -62.75 L 35.875 -46.78125 L 27.890625 -46.78125 L 27.890625 0 L 8.65625 0 L 8.65625 -46.78125 L 2.8125 -46.78125 L 2.8125 -62.75 L 8.65625 -62.75 L 8.65625 -65.125 C 8.65625 -73.070312 10.773438 -78.878906 15.015625 -82.546875 C 19.253906 -86.222656 25.910156 -88.0625 34.984375 -88.0625 L 34.984375 -71.75 C 32.429688 -71.75 30.609375 -71.257812 29.515625 -70.28125 C 28.429688 -69.3125 27.890625 -67.59375 27.890625 -65.125 L 27.890625 -62.75 Z M 35.875 -62.75 "/></g></g></g><g fill="#ff7d00" fill-opacity="1"><g transform="translate(256.886317, 534.009514)"><g><path d="M 46.109375 -19.6875 C 48.660156 -22.382812 49.9375 -26.28125 49.9375 -31.375 C 49.9375 -36.476562 48.625 -40.359375 46 -43.015625 C 43.375 -45.679688 40.257812 -47.015625 36.65625 -47.015625 C 33.0625 -47.015625 29.96875 -45.679688 27.375 -43.015625 C 24.789062 -40.359375 23.5 -36.476562 23.5 -31.375 C 23.5 -26.28125 24.828125 -22.382812 27.484375 -19.6875 C 30.148438 -16.988281 33.28125 -15.640625 36.875 -15.640625 C 40.476562 -15.640625 43.554688 -16.988281 46.109375 -19.6875 Z M 13.4375 -8.09375 C 7.101562 -14.019531 3.9375 -21.816406 3.9375 -31.484375 C 3.9375 -41.160156 7.082031 -48.90625 13.375 -54.71875 C 19.675781 -60.53125 27.472656 -63.4375 36.765625 -63.4375 C 46.066406 -63.4375 53.847656 -60.53125 60.109375 -54.71875 C 66.367188 -48.90625 69.5 -41.160156 69.5 -31.484375 C 69.5 -21.816406 66.382812 -14.019531 60.15625 -8.09375 C 53.9375 -2.175781 46.175781 0.78125 36.875 0.78125 C 27.582031 0.78125 19.769531 -2.175781 13.4375 -8.09375 Z M 13.4375 -8.09375 "/></g></g></g><g fill="#ff7d00" fill-opacity="1"><g transform="translate(330.318152, 534.009514)"><g><path d="M 8.4375 0 L 8.4375 -83.234375 L 27.671875 -83.234375 L 27.671875 0 Z M 8.4375 0 "/></g></g></g><g fill="#ff7d00" fill-opacity="1"><g transform="translate(366.415574, 534.009514)"><g><path d="M 25.96875 -69.84375 C 23.800781 -67.664062 21.140625 -66.578125 17.984375 -66.578125 C 14.835938 -66.578125 12.175781 -67.664062 10 -69.84375 C 7.832031 -72.019531 6.75 -74.703125 6.75 -77.890625 C 6.75 -81.078125 7.832031 -83.753906 10 -85.921875 C 12.175781 -88.097656 14.835938 -89.1875 17.984375 -89.1875 C 21.140625 -89.1875 23.800781 -88.097656 25.96875 -85.921875 C 28.144531 -83.753906 29.234375 -81.078125 29.234375 -77.890625 C 29.234375 -74.703125 28.144531 -72.019531 25.96875 -69.84375 Z M 8.4375 0 L 8.4375 -62.75 L 27.671875 -62.75 L 27.671875 0 Z M 8.4375 0 "/></g></g></g><g fill="#ff7d00" fill-opacity="1"><g transform="translate(402.512996, 534.009514)"><g><path d="M 46.109375 -19.6875 C 48.660156 -22.382812 49.9375 -26.28125 49.9375 -31.375 C 49.9375 -36.476562 48.625 -40.359375 46 -43.015625 C 43.375 -45.679688 40.257812 -47.015625 36.65625 -47.015625 C 33.0625 -47.015625 29.96875 -45.679688 27.375 -43.015625 C 24.789062 -40.359375 23.5 -36.476562 23.5 -31.375 C 23.5 -26.28125 24.828125 -22.382812 27.484375 -19.6875 C 30.148438 -16.988281 33.28125 -15.640625 36.875 -15.640625 C 40.476562 -15.640625 43.554688 -16.988281 46.109375 -19.6875 Z M 13.4375 -8.09375 C 7.101562 -14.019531 3.9375 -21.816406 3.9375 -31.484375 C 3.9375 -41.160156 7.082031 -48.90625 13.375 -54.71875 C 19.675781 -60.53125 27.472656 -63.4375 36.765625 -63.4375 C 46.066406 -63.4375 53.847656 -60.53125 60.109375 -54.71875 C 66.367188 -48.90625 69.5 -41.160156 69.5 -31.484375 C 69.5 -21.816406 66.382812 -14.019531 60.15625 -8.09375 C 53.9375 -2.175781 46.175781 0.78125 36.875 0.78125 C 27.582031 0.78125 19.769531 -2.175781 13.4375 -8.09375 Z M 13.4375 -8.09375 "/></g></g></g></svg>